<svg xmlns="http://www.w3.org/2000/svg" version="1.1" xmlns:xlink="http://www.w3.org/1999/xlink" xmlns:svgjs="http://svgjs.dev/svgjs" width="100%" height="100%" viewBox="0 0 1000 600"><rect width="1000" height="600" x="0" y="0" fill="#050505"/><g><rect width="333.3333333333333" height="333.3333333333333" rx="13.333333333333334" ry="13.333333333333334" y="228.00221301297344" fill="#616161" transform="matrix(0.6074448776399975,0,0,0.6074448776399978,0,60.26040831013448)" x="205.7799835205078"/><path d="M491.21466009699117 319.6688860527807L491.21466009699117 331.8158598491091L475.43656246119104 333.6746494336006L432.72762968264146 469.66888275477163L410.6815206572768 469.66888275477163L373.89477795024675 353.25678156789513L332.87172409716624 469.66888275477163L310.69593207753474 469.66888275477163L270.8832528376115 333.6746494336006L253.67864226487595 331.8158598491091L253.67864226487595 319.6688860527807L321.93512491399514 319.6688860527807L321.93512491399514 331.8158598491091L307.3241742265966 332.72364080897705Q302.4826757739675 333.19914512128884 302.4826757739675 337.9109605796511L302.4826757739675 337.9109605796511Q302.4826757739675 338.9916521985415 302.61235876823434 339.59683950512016L302.61235876823434 339.59683950512016L328.4625022920933 436.38358089294655L368.5777751853059 319.6688860527807L390.7535672049373 319.6688860527807L426.8054396111219 436.38358089294655L455.50860900885164 339.59683950512016Q455.68151966787406 339.1213351928084 455.68151966787406 338.0406435739179L455.68151966787406 338.0406435739179Q455.68151966787406 336.0953986599152 454.4279173899612 334.49597506395736Q453.2175427768039 332.89655146799953 451.09938720377863 332.72364080897705L451.09938720377863 332.72364080897705L436.83425783442505 331.8158598491091L436.83425783442505 319.6688860527807L491.21466009699117 319.6688860527807Z " fill="#050505" transform="matrix(0.6074448776399975,0,0,0.6074448776399978,0,60.26040831013448)"/><path d="M803.9629837731848 332.8122199837264L803.9629837731848 341.3623031386394L791.8157782553633 343.6865975885187L761.3785890307538 469.66889080637947L746.7687382029412 469.66889080637947L713.5091914320499 359.26490443711424L680.9137287896954 469.66889080637947L666.5252393380617 469.66889080637947L634.0404573837968 343.6865975885187L622.4466553064228 341.3623031386394L622.4466553064228 332.8122199837264L668.0747689713146 332.8122199837264L668.0747689713146 341.3623031386394L656.204265173717 342.52445036357904Q653.9629812399048 342.8288222558251 653.9629812399048 345.4574885979505L653.9629812399048 345.4574885979505Q653.9629812399048 345.7341903181742 654.1566724440613 346.50895513480066L654.1566724440613 346.50895513480066L677.8976800392568 436.40934403548806L709.137304252515 332.8122199837264L724.4942497249316 332.8122199837264L756.5916492708834 439.61908399008325L778.6724465447364 346.50895513480066Q778.783127232826 346.31526393064405 778.783127232826 345.8448710062637L778.783127232826 345.8448710062637Q778.783127232826 342.8288222558251 775.8500889984545 342.52445036357904L775.8500889984545 342.52445036357904L763.3155010723199 341.3623031386394L763.3155010723199 332.8122199837264L803.9629837731848 332.8122199837264ZM904.0736661501275 458.6838325134977L904.0736661501275 466.45915085178433L874.604932946301 466.45915085178433L871.9762666041756 454.69932774227607Q871.9762666041756 454.69932774227607 869.0155581977818 456.82993098799875Q866.0271796193656 458.96053423372143 861.1848995154505 461.7828917800034Q856.314949239513 464.6052493262854 850.4212025987476 466.7635227440304Q844.5274559579824 468.8941259897531 838.7167198332842 468.8941259897531L838.7167198332842 468.8941259897531Q827.8976825725367 468.8941259897531 820.3713957824515 461.6998812639363Q812.8174388203438 454.50563653811946 812.8174388203438 441.9433784399625L812.8174388203438 441.9433784399625Q812.8174388203438 436.40934403548806 814.8096912059546 431.62240427561767Q816.8296137635878 426.8631346877696 822.8063709204201 422.5465878522796Q828.7831280772526 418.20237084476713 840.5982915308056 414.07951521343364Q852.4134549843585 409.9289894100778 871.9762666041756 405.6677829186325L871.9762666041756 405.6677829186325L871.9762666041756 397.0900295916971Q871.9762666041756 377.4442074558128 853.3819110051415 377.4442074558128L853.3819110051415 377.4442074558128Q848.2352590089803 377.4442074558128 844.4997857859601 378.4126634765958Q840.7366423909174 379.40878966940124 839.297793445754 379.98986328187107L839.297793445754 379.98986328187107L839.297793445754 397.2837207958537L824.798623306031 397.2837207958537Q822.0592762758162 397.2837207958537 819.7349818259369 396.2599244310259Q817.4106873760576 395.26379823822055 817.4106873760576 391.55599518722266L817.4106873760576 391.55599518722266Q817.4106873760576 383.39329444062287 823.6364760810914 378.19130210041686Q829.8622647861251 372.9616395881885 839.4361443058659 370.49899427819736Q849.0100238256067 368.00867879618386 858.8329348935488 368.00867879618386L858.8329348935488 368.00867879618386Q871.2015017875492 368.00867879618386 878.0083641050528 371.8548327072936Q884.8152264225564 375.70098661840336 887.5269032807489 382.45250859186217Q890.2662503109636 389.2317007373434 890.2662503109636 397.8647944083235L890.2662503109636 397.8647944083235L890.2662503109636 453.7032015494707Q890.2662503109636 455.55710307496963 891.4837378799482 456.7192502999093Q892.7012254489325 457.90906769687126 894.4444462863419 458.10275890102787L894.4444462863419 458.10275890102787L904.0736661501275 458.6838325134977ZM871.9762666041756 447.6711040485935L871.9762666041756 447.6711040485935L871.9762666041756 413.24941005276247Q858.5562331733252 416.5421605234248 850.6148938029042 419.9179215101542Q842.7012246045058 423.2660123248612 838.7997303493513 426.6141031395683Q834.8982360941968 429.9898641262977 833.6807485252125 433.4209654570718Q832.4909311282504 436.8797369598684 832.4909311282504 440.58754001086623L832.4909311282504 440.58754001086623Q832.4909311282504 446.70264802781054 836.4200955554273 451.90464036801654Q840.3492599826042 457.1066327082225 847.4604941923538 457.1066327082225L847.4604941923538 457.1066327082225Q851.4449989635755 457.1066327082225 855.7338756270432 455.7231241071039Q859.9950821184884 454.31194533396285 863.7028851694863 452.40270346441923Q867.4106882204843 450.4934615948755 869.6796423263188 449.08228282173457Q871.9762666041756 447.6711040485935 871.9762666041756 447.6711040485935ZM983.2656984781568 371.02472754662244L983.2656984781568 390.78123037059623L975.4903801398702 390.78123037059623Q973.6364786143713 388.5399464367841 971.0631526162906 386.9350764594865Q968.4621564461877 385.3302064821889 964.7820235672121 385.3302064821889L964.7820235672121 385.3302064821889Q960.0227539793641 385.3302064821889 954.9867826712923 388.6229569528512Q949.978481535243 391.9433775955359 944.8318295390818 397.6711032041669L944.8318295390818 397.6711032041669L944.8318295390818 453.7032015494707Q944.8318295390818 457.90906769687126 949.01002551446 458.10275890102787L949.01002551446 458.10275890102787L962.1533572250868 458.6838325134977L962.1533572250868 466.45915085178433L912.3470475848168 466.45915085178433L912.3470475848168 458.8775237176543L922.1699586527589 458.10275890102787Q923.9131794901684 457.90906769687126 925.1306670591528 456.7192502999093Q926.3481546281371 455.55710307496963 926.3481546281371 453.7032015494707L926.3481546281371 453.7032015494707L926.3481546281371 384.55544166556246L911.9596651765034 384.55544166556246L911.9596651765034 378.02528106828265L936.6691287924821 370.4436539341526L944.8318295390818 370.4436539341526L944.8318295390818 388.15256402847086Q947.7648677734533 384.94282407387567 952.136754952988 380.1835544860277Q956.5086421325229 375.3966147261573 961.4616029245275 371.71648184718174Q966.4422338885545 368.00867879618386 971.0908227883131 368.00867879618386L971.0908227883131 368.00867879618386Q974.217552226841 368.00867879618386 977.8146745897495 368.9771348169669Q981.4117969526578 369.94559083774993 983.2656984781568 371.02472754662244L983.2656984781568 371.02472754662244ZM1076.1544659572605 444.37835357793125L1076.1544659572605 456.52555909575267Q1067.798074006504 461.6998812639363 1058.1135137986737 465.2970036268447Q1048.4289535908435 468.8941259897531 1038.3293408026775 468.8941259897531L1038.3293408026775 468.8941259897531Q1026.2651458009232 468.8941259897531 1015.695140088377 463.4984424453905Q1005.1528045478533 458.10275890102787 998.6226439505734 447.0900304361237Q992.120153525316 436.104972143242 992.120153525316 419.4751987577962L992.120153525316 419.4751987577962Q992.120153525316 403.8968919092007 998.152251026193 392.33076000384904Q1004.1843485270701 380.7646280984975 1014.7820244116388 374.3728183613295Q1025.3797002962074 368.00867879618386 1038.9104144151474 368.00867879618386L1038.9104144151474 368.00867879618386Q1057.477099842159 368.00867879618386 1066.8296179857211 379.5471405295131Q1076.1544659572605 391.0579320908199 1076.1544659572605 408.8775228732277L1076.1544659572605 408.8775228732277Q1076.1544659572605 409.8459788940107 1076.1544659572605 411.4508488713083Q1076.1544659572605 413.05571884860586 1075.9607747531038 414.4115572777021L1075.9607747531038 414.4115572777021L1011.378593252887 414.4115572777021Q1011.378593252887 421.9931844118321 1012.9834632301846 429.5471413739397Q1014.5883332074822 437.07342816402496 1018.3791467745472 443.2162063529916Q1022.1699603416122 449.33131436993585 1028.5894402508025 453.03911742093374Q1035.008920159993 456.7192502999093 1044.6381400237785 456.7192502999093L1044.6381400237785 456.7192502999093Q1053.215893350714 456.7192502999093 1061.323253753269 452.79008587273245Q1069.4582843278463 448.86092144555556 1076.1544659572605 444.37835357793125L1076.1544659572605 444.37835357793125ZM1012.4300597897371 405.4740917144759L1056.20427192913 405.4740917144759L1056.20427192913 401.0745343629187Q1056.20427192913 391.2516232949765 1051.5003426853268 384.55544166556246Q1046.768743269501 377.83158986412604 1036.8628216854918 377.83158986412604L1036.8628216854918 377.83158986412604Q1027.0399106175496 377.83158986412604 1020.1223676119566 385.2195257940994Q1013.2324947783859 392.6351318960952 1012.4300597897371 405.4740917144759L1012.4300597897371 405.4740917144759ZM1236.9735057512878 370.4436539341526L1236.9735057512878 378.21897227243926L1226.8462227910995 379.40878966940124L1199.5080928329958 466.45915085178433L1185.3963051015862 466.45915085178433L1161.848988710547 391.9433775955359L1135.589995461316 466.45915085178433L1121.395197213839 466.45915085178433L1095.9109687812343 379.40878966940124L1084.9259104883524 378.21897227243926L1084.9259104883524 370.4436539341526L1128.589441939656 370.4436539341526L1128.589441939656 378.21897227243926L1119.2645939681165 378.800045884909Q1116.1378645295883 379.10441777715516 1116.1378645295883 382.1204665275937L1116.1378645295883 382.1204665275937Q1116.1378645295883 382.81222082815304 1116.2485452176777 383.19960323646626L1116.2485452176777 383.19960323646626L1132.7676379150341 445.1531183945577L1158.4455575517954 370.4436539341526L1172.6680259712948 370.4436539341526L1195.7172792659308 445.1531183945577L1214.0902734887861 383.19960323646626Q1214.2009541768755 382.8952313442201 1214.2009541768755 382.2034770436608L1214.2009541768755 382.2034770436608Q1214.2009541768755 380.9583193026541 1213.4261893602493 379.93452293782633Q1212.6514245436229 378.91072657299856 1211.267915942504 378.800045884909L1211.267915942504 378.800045884909L1202.1367591751214 378.21897227243926L1202.1367591751214 370.4436539341526L1236.9735057512878 370.4436539341526ZM1329.8622732303913 444.37835357793125L1329.8622732303913 456.52555909575267Q1321.505881279635 461.6998812639363 1311.8213210718047 465.2970036268447Q1302.1367608639746 468.8941259897531 1292.0094779037863 468.8941259897531L1292.0094779037863 468.8941259897531Q1279.9452829020317 468.8941259897531 1269.402947361508 463.4984424453905Q1258.8606118209843 458.10275890102787 1252.3304512237044 447.0900304361237Q1245.8002906264246 436.104972143242 1245.8002906264246 419.4751987577962L1245.8002906264246 419.4751987577962Q1245.8002906264246 403.8968919092007 1251.8323881273016 392.33076000384904Q1257.864485628179 380.7646280984975 1268.48983168477 374.3728183613295Q1279.0875075693384 368.00867879618386 1292.590551516256 368.00867879618386L1292.590551516256 368.00867879618386Q1311.1849071152903 368.00867879618386 1320.5097550868297 379.5471405295131Q1329.8622732303913 391.0579320908199 1329.8622732303913 408.8775228732277L1329.8622732303913 408.8775228732277Q1329.8622732303913 409.8459788940107 1329.8622732303913 411.4508488713083Q1329.8622732303913 413.05571884860586 1329.6685820262348 414.4115572777021L1329.6685820262348 414.4115572777021L1265.086400526018 414.4115572777021Q1265.086400526018 421.9931844118321 1266.6912705033158 429.5471413739397Q1268.2961404806133 437.07342816402496 1272.086954047678 443.2162063529916Q1275.877767614743 449.33131436993585 1282.2972475239335 453.03911742093374Q1288.7167274331239 456.7192502999093 1298.3459472969096 456.7192502999093L1298.3459472969096 456.7192502999093Q1306.8960304518225 456.7192502999093 1315.0310610264 452.79008587273245Q1323.1384214289549 448.86092144555556 1329.8622732303913 444.37835357793125L1329.8622732303913 444.37835357793125ZM1266.1378670628683 405.4740917144759L1309.912079202261 405.4740917144759L1309.912079202261 401.0745343629187Q1309.912079202261 391.2516232949765 1305.2081499584576 384.55544166556246Q1300.4765505426321 377.83158986412604 1290.5706289586228 377.83158986412604L1290.5706289586228 377.83158986412604Q1280.7477178906809 377.83158986412604 1273.8301748850877 385.2195257940994Q1266.9126318794945 392.6351318960952 1266.1378670628683 405.4740917144759L1266.1378670628683 405.4740917144759ZM1440.4599508038134 413.83048366523235L1440.4599508038134 413.83048366523235Q1440.4599508038134 428.8000467293357 1434.5385339910256 440.7258908709781Q1428.5894470062156 452.6517350126205 1415.9441783919917 459.54160784619125Q1403.2989097777674 466.45915085178433 1383.26570523357 466.45915085178433L1383.26570523357 466.45915085178433L1354.57173684637 466.45915085178433L1354.57173684637 333.974367208666L1339.491493094177 333.974367208666L1339.491493094177 327.36119609531903L1365.1694127309386 319.6688882730996L1373.1384222733816 319.6688882730996L1373.1384222733816 375.3966147261573Q1376.5418534321336 373.7640745768373 1384.178820910308 370.8863766865106Q1391.815788388483 368.00867879618386 1400.5872329195752 368.00867879618386L1400.5872329195752 368.00867879618386Q1413.7028944581793 368.00867879618386 1422.5573495053384 374.3451481893071Q1431.4118045524976 380.65394741040797 1435.9497127641666 391.1132724348647Q1440.4599508038134 401.5725974593214 1440.4599508038134 413.83048366523235ZM1420.1223743673697 417.8149884364539L1420.1223743673697 417.8149884364539Q1420.1223743673697 398.94393111719603 1412.1533648249267 389.37005159745524Q1404.1843552824832 379.79617207771446 1389.6851851427602 379.79617207771446L1389.6851851427602 379.79617207771446Q1386.392434672098 379.79617207771446 1381.273452847959 380.8476386145646Q1376.1544710238202 381.9267753234371 1373.1384222733816 383.00591203230965L1373.1384222733816 383.00591203230965L1373.1384222733816 456.9129415040659Q1373.1384222733816 456.9129415040659 1376.597193776178 457.02362219215536Q1380.0559652789748 457.1066327082225 1382.8783228252566 457.1066327082225L1382.8783228252566 457.1066327082225Q1400.5872329195752 457.1066327082225 1410.3548036434722 448.3628583491528Q1420.1223743673697 439.61908399008325 1420.1223743673697 417.8149884364539Z " fill="#FFFF" transform="matrix(0.6074448776399975,0,0,0.6074448776399978,0,60.26040831013448)"/></g></svg>